<?xml version="1.0" standalone="no"?>
<!DOCTYPE svg PUBLIC "-//W3C//DTD SVG 20010904//EN"
 "http://www.w3.org/TR/2001/REC-SVG-20010904/DTD/svg10.dtd">
<svg version="1.0" xmlns="http://www.w3.org/2000/svg"
 width="512.000000pt" height="512.000000pt" viewBox="0 0 512.000000 512.000000"
 preserveAspectRatio="xMidYMid meet">

<g transform="translate(0.000000,512.000000) scale(0.100000,-0.100000)"
fill="#edf6f9" stroke="#edf6f9" stroke-width="100">
<path d="M25 4335 c-16 -15 -25 -36 -25 -55 0 -19 9 -40 25 -55 l24 -25 430 0
c276 0 449 -4 483 -11 64 -13 157 -61 191 -97 13 -15 301 -535 638 -1155 671
-1233 645 -1191 775 -1259 136 -71 70 -68 1286 -68 l1095 0 21 23 c29 31 29
87 1 113 -20 18 -57 19 -1123 24 l-1101 5 -59 24 c-76 32 -144 98 -190 183
l-35 68 1152 2 1152 3 50 23 c90 41 152 117 174 213 6 24 38 368 72 763 68
795 67 770 4 833 l-33 33 -1540 0 c-1518 0 -1540 0 -1564 -20 -50 -39 -37
-118 22 -139 24 -8 436 -11 1516 -11 l1484 0 0 -37 c0 -21 -27 -346 -60 -722
-64 -743 -58 -706 -124 -755 -27 -21 -35 -21 -1209 -25 l-1182 -3 -530 973
c-586 1079 -568 1050 -705 1117 -125 61 -139 62 -638 62 l-453 0 -24 -25z"/>
<path d="M1627 3900 c-33 -26 -41 -63 -22 -99 29 -58 144 -66 185 -14 28 36
25 70 -9 104 -25 24 -38 29 -79 29 -34 0 -57 -6 -75 -20z"/>
<path d="M2625 1362 c-115 -55 -178 -155 -179 -282 -1 -66 3 -84 32 -142 119
-242 457 -236 569 9 70 153 4 336 -149 413 -52 25 -73 30 -137 30 -63 0 -86
-5 -136 -28z m201 -148 c111 -53 110 -220 -1 -274 -53 -26 -82 -25 -135 3 -52
28 -80 75 -80 138 0 110 115 181 216 133z"/>
<path d="M4567 1376 c-162 -58 -248 -243 -190 -412 25 -74 120 -164 197 -188
153 -48 313 19 383 162 38 77 39 190 4 270 -30 66 -113 144 -177 166 -57 19
-165 20 -217 2z m191 -173 c42 -30 75 -103 66 -147 -15 -84 -100 -147 -177
-132 -68 13 -127 84 -127 153 0 45 37 107 77 131 46 28 120 25 161 -5z"/>
</g>
</svg>
